<?xml version="1.0" standalone="no"?><!DOCTYPE svg PUBLIC "-//W3C//DTD SVG 1.1//EN" "http://www.w3.org/Graphics/SVG/1.1/DTD/svg11.dtd"><svg class="icon" width="64px" height="64.00px" viewBox="0 0 1024 1024" version="1.1" xmlns="http://www.w3.org/2000/svg"><path fill="#707070" d="M512 64.050782c60.495816 0 119.153774 11.836583 174.345794 35.181267 53.335742 22.558785 101.245915 54.864562 142.401244 96.01989s73.461105 89.066525 96.01989 142.401244c23.344684 55.19202 35.181267 113.851001 35.181267 174.345794 0 60.494793-11.836583 119.153774-35.181267 174.345793-22.558785 53.334719-54.864562 101.245915-96.01989 142.401244s-89.066525 73.461105-142.401244 96.019891c-55.19202 23.344684-113.851001 35.181267-174.345794 35.181267s-119.153774-11.836583-174.345794-35.181267c-53.335742-22.558785-101.245915-54.864562-142.401244-96.019891S121.791857 739.679489 99.233072 686.34477c-23.344684-55.19202-35.181267-113.851001-35.181267-174.345793 0-60.495816 11.836583-119.153774 35.181267-174.345794 22.558785-53.335742 54.864562-101.245915 96.01989-142.401244s89.066525-73.461105 142.401244-96.01989c55.19202-23.344684 113.849978-35.181267 174.345794-35.181267m0-51.16531c-275.653107 0-499.114528 223.461421-499.114528 499.114528S236.346893 1011.114528 512 1011.114528s499.114528-223.461421 499.114528-499.114528S787.653107 12.885472 512 12.885472z"  /><path fill="#707070" d="M452.817086 700.608635c-89.671299 4.198625-162.15617-40.772612-162.15617-100.603279 0-59.897182 72.483848-107.944478 162.15617-112.084774 89.719394-4.131087 162.356738 32.840966 162.356738 92.62763 0 59.835783-72.636321 115.995851-162.356738 120.060423M643.748626 506.21218c-21.310352-4.131087-10.949376-15.59928-10.949376-15.59928s20.834514-34.351366-4.131087-59.316967c-30.940686-30.930453-106.111736 3.939729-106.111736 3.939729-28.712949 8.905834-21.113877-4.074805-17.053398-26.15059 0-26.012444-8.905834-70.061682-85.405135-44.045145-76.400041 26.146497-142.008294 117.785613-142.008295 117.785613-45.632293 60.871369-39.58046 107.924012-39.58046 107.924012 11.381212 103.894232 121.763205 132.405589 207.614501 139.157363 90.333378 7.083326 212.227566-31.136138 249.202689-109.646236 36.960797-78.661547-30.215162-109.782336-51.577703-114.048499"  /><path fill="#707070" d="M465.35054 600.659249c-5.715165 4.26514-12.744255 3.679809-15.739472-1.444908-3.151783-4.976338-1.971911-12.970406 3.795442-17.169032 6.67912-4.979408 13.637602-3.544733 16.646122 1.444909 3.00852 5.105275 0.853437 12.771885-4.702092 17.169031m-53.175083 45.281299c-16.842597 1.981121-30.41266-7.724938-30.41266-21.823028 0-14.016225 12.06785-28.708855 28.91454-30.464849 19.332301-1.842974 31.917944 9.31004 31.917943 23.391757 0.001023 14.020318-13.649881 26.995841-30.419823 28.89612m22.748097-118.553093c-90.175789 10.55131-79.758532 95.027284-79.758532 95.027284s-0.925069 26.755364 24.179702 40.373523c52.767807 28.588105 107.090017 11.285021 134.560672-24.174586 27.456329-35.45449 11.337209-121.720226-78.981842-111.226221M687.653579 469.64331c7.269567 0 13.441127-5.382591 14.491039-12.384052a6.51846 6.51846 0 0 0 0.183172-1.578961c11.015891-99.028411-81.135902-81.984223-81.135902-81.984223-8.190543 0-14.740726 6.617721-14.740726 14.874779 0 8.129144 6.550183 14.749936 14.740726 14.749936 66.197678-14.614859 51.577702 51.573609 51.577702 51.573609-0.001023 8.18952 6.67912 14.748912 14.883989 14.748912"  /><path fill="#707070" d="M676.915004 296.783357c-31.865755-7.461949-64.62895-1.022283-73.827449 0.73371-0.700965 0.072655-1.373277 0.734734-2.015914 0.872881-0.322341 0.057305-0.518816 0.384763-0.518816 0.384763-9.05933 2.557242-15.666818 10.945283-15.666818 20.844747 0 11.793604 9.562796 21.496593 21.491477 21.496593 0 0 11.607362-1.555425 19.462261-4.635577 7.797593-3.133364 73.798796-2.336208 106.572224 52.714596 17.892509 40.171931 7.869225 67.067488 6.625907 71.389933 0 0-4.260024 10.432607-4.260023 20.715811 0 11.866259 9.562796 19.322068 21.423938 19.322068 9.899464 0 18.229177-1.362021 20.652366-18.113543h0.12382c35.19764-117.296473-43.054585-172.410722-100.062973-185.725982"  /></svg>