<?xml version="1.0" standalone="no"?><!DOCTYPE svg PUBLIC "-//W3C//DTD SVG 1.1//EN" "http://www.w3.org/Graphics/SVG/1.1/DTD/svg11.dtd"><svg class="icon" width="64px" height="64.00px" viewBox="0 0 1024 1024" version="1.1" xmlns="http://www.w3.org/2000/svg"><path fill="#707070" d="M863.20585 554.491767c0-86.171592-89.49836-156.024519-200.098317-156.02452-110.496603 0-200.098317 69.852928-200.098317 156.02452 0 85.651752 88.563058 155.089218 198.227713 155.920142 47.711652 80.247672 91.473341 64.863287 91.473341 64.863286s-34.094516-22.660092-37.629015-70.164012c85.34169-17.878183 148.124596-78.479399 148.124595-150.619416z m-266.623453-24.322965c-12.889565 0-23.387663-10.499122-23.387663-23.387664 0-12.889565 10.499122-23.387663 23.387663-23.387663 12.889565 0 23.387663 10.498098 23.387663 23.387663 0 12.888542-10.498098 23.387663-23.387663 23.387664z m128.166032 0c-12.992919 0-23.387663-10.499122-23.387664-23.387664 0-12.889565 10.394744-23.387663 23.387664-23.387663 12.889565 0 23.284309 10.498098 23.284309 23.387663 0 12.888542-10.393721 23.387663-23.284309 23.387664z"  /><path fill="#707070" d="M638.785591 371.232976c-33.5757-73.698512-124.529201-126.607536-231.594658-126.607536-135.651516 0-245.627257 84.925205-245.627257 189.599196 0 89.706091 80.767512 164.859745 189.183733 184.5062-2.079358 62.056358-46.567595 91.681072-46.567595 91.681073s56.131415 19.854187 116.317169-86.588078c0 0-0.312108-0.103354-0.830925-0.207731 11.329023-0.51984 22.556739-1.559519 33.4703-3.118014-14.552437-23.076578-22.76447-48.959062-22.76447-76.402087-0.002047-92.095511 92.096535-167.353542 208.413703-172.863023z m-304.877709 31.28861c-17.151635 0-30.976502-13.824867-30.976501-30.871101 0-17.151635 13.824867-30.976502 30.976501-30.976502 17.047258 0 30.871101 13.824867 30.871102 30.976502 0.001023 17.045211-13.82282 30.871101-30.871102 30.871101z m124.944664-30.872124c0-17.151635 13.824867-30.976502 30.976502-30.976502 17.047258 0 30.871101 13.824867 30.871101 30.976502 0 17.047258-13.823843 30.871101-30.871101 30.871101-17.151635 0.001023-30.976502-13.824867-30.976502-30.871101z"  /><path fill="#707070" d="M512 64.050782c60.495816 0 119.153774 11.836583 174.345794 35.181267 53.335742 22.558785 101.245915 54.864562 142.401244 96.01989s73.461105 89.066525 96.01989 142.401244c23.344684 55.19202 35.181267 113.851001 35.181267 174.345794 0 60.494793-11.836583 119.153774-35.181267 174.345793-22.558785 53.334719-54.864562 101.245915-96.01989 142.401244s-89.066525 73.461105-142.401244 96.019891c-55.19202 23.344684-113.851001 35.181267-174.345794 35.181267s-119.153774-11.836583-174.345794-35.181267c-53.335742-22.558785-101.245915-54.864562-142.401244-96.019891S121.791857 739.679489 99.233072 686.34477c-23.344684-55.19202-35.181267-113.851001-35.181267-174.345793 0-60.495816 11.836583-119.153774 35.181267-174.345794 22.558785-53.335742 54.864562-101.245915 96.01989-142.401244s89.066525-73.461105 142.401244-96.01989c55.19202-23.344684 113.849978-35.181267 174.345794-35.181267m0-51.16531c-275.653107 0-499.114528 223.461421-499.114528 499.114528S236.346893 1011.114528 512 1011.114528s499.114528-223.461421 499.114528-499.114528S787.653107 12.885472 512 12.885472z"  /></svg>